<?xml version="1.0" encoding="UTF-8"?>
<!DOCTYPE svg PUBLIC "-//W3C//DTD SVG 1.1//EN" "http://www.w3.org/Graphics/SVG/1.1/DTD/svg11.dtd">
<!-- Creator: CorelDRAW -->
<svg xmlns="http://www.w3.org/2000/svg" xml:space="preserve" width="2048px" height="2048px" style="shape-rendering:geometricPrecision; text-rendering:geometricPrecision; image-rendering:optimizeQuality; fill-rule:evenodd; clip-rule:evenodd"
viewBox="0 0 2048 2048"
 xmlns:xlink="http://www.w3.org/1999/xlink">
 <defs>
  <style type="text/css">
   <![CDATA[
    .fil0 {fill:#607D8B}
    .fil1 {fill:#FFFFFE}
    .fil2 {fill:#FFFFFE;fill-rule:nonzero}
   ]]>
  </style>
 </defs>
 <g id="Layer_x0020_1">
  <metadata id="CorelCorpID_0Corel-Layer"/>
  <rect class="fil0" width="2048" height="2048" rx="256.001" ry="256.001"/>
  <path class="fil1" d="M1265.73 1292.23c14.4036,-20.054 32.9658,-36.802 54.378,-49.128 27.0107,-15.5469 57.6638,-23.7225 88.8284,-23.7225 8.10001,0 16.2012,0.638977 24.2209,1.76221 1.63937,0.229134 3.27638,0.48189 4.90867,0.754725 14.1543,-20.8382 32.7083,-38.3067 54.3319,-51.2575 27.6803,-16.5768 59.3138,-25.1516 91.5603,-25.1516 46.2567,0 90.6308,17.6835 123.813,49.9819 27.5729,26.8394 45.4087,61.9347 50.1367,100.132 34.5343,7.84134 66.0048,25.7386 90.1016,51.8067 28.8614,31.2201 44.9882,71.6753 44.9882,114.293 0,45.7961 -18.6921,88.8662 -51.3993,120.702 -33.0591,32.178 -77.2276,49.9737 -123.344,49.9737l-472.402 0.00236221c-46.252,0 -90.6095,-17.6835 -123.801,-49.9595 -32.7331,-31.8319 -51.5433,-74.8819 -51.5433,-120.718 0,-12.3437 1.48228,-24.6532 4.213,-36.6862 8.59135,-37.8532 30.176,-71.4922 60.4725,-95.6139 31.3181,-24.9343 69.9875,-38.4 110.017,-38.4 6.85749,0 13.7114,0.425197 20.5193,1.22953z"/>
  <path class="fil2" d="M769.475 639.981c52.6111,0 100.24,21.3284 134.719,55.8083 34.4811,34.4823 55.8071,82.1174 55.8071,134.726 0,8.44961 -0.564567,16.8036 -1.65473,25.0217l-0.564567 4.18583c-16.7138,2.14252 -33.2847,4.87678 -49.6878,8.19804l-0.134646 0.0200788c-2.46142,0.499607 -4.92048,1.01221 -7.37481,1.5378l-0.634252 0.137008c-2.80158,0.602363 -5.59843,1.22008 -8.3882,1.85551l-0.155906 0.0354331 -0.106299 0.0248032c-2.81575,0.64252 -5.62441,1.30394 -8.42953,1.98071l-0.555119 0.133465c-2.80158,0.679134 -5.59843,1.37599 -8.38938,2.08937l-0.454725 0.115748c-2.80984,0.719292 -5.61496,1.4563 -8.41536,2.21103l-0.407481 0.111024c-2.74961,0.741733 -5.49213,1.50118 -8.23111,2.27717l-0.438189 0.124016c-2.75433,0.783071 -5.50394,1.58386 -8.24764,2.39882l-0.577559 0.17126c-2.72244,0.811418 -5.4378,1.64055 -8.14725,2.48504l-0.647245 0.201969c-2.74843,0.861024 -5.49095,1.73386 -8.22875,2.62795l-0.16063 0.0531496c-2.79803,0.912993 -5.59134,1.84725 -8.37757,2.79449l-0.20315 0.068504c-2.73071,0.930709 -5.45315,1.87914 -8.17087,2.84292l-0.615355 0.218504c-2.63386,0.937796 -5.26063,1.88858 -7.88268,2.85709l-0.812599 0.301181c-2.57835,0.955513 -5.15079,1.92638 -7.71733,2.91142l-0.522048 0.200788c-2.63386,1.01339 -5.26063,2.04449 -7.88268,3.08977l-0.589371 0.23504c-2.62914,1.05236 -5.25237,2.1189 -7.86851,3.20197l-0.5563 0.230315c-2.62914,1.09016 -5.25355,2.19803 -7.86969,3.32008l-0.52441 0.225591c-2.56063,1.10197 -5.11418,2.21693 -7.66064,3.34843l-0.479528 0.212599c-2.61496,1.16339 -5.22048,2.34449 -7.82008,3.53859l-0.512599 0.236221c-2.60315,1.19882 -5.19922,2.41181 -7.78701,3.64252l-0.407481 0.193701c-2.63504,1.25433 -5.26063,2.52402 -7.8815,3.81142l-0.0507874 0.0248032 -0.0555119 0.0283465c-2.64095,1.29803 -5.27481,2.61378 -7.90158,3.94488l-0.255118 0.12874c-2.57481,1.3063 -5.14252,2.62914 -7.70079,3.96733l-0.529134 0.277559c-2.53347,1.32756 -5.06103,2.66811 -7.57914,4.02638l-0.431103 0.233858c-1.69252,0.914174 -3.38268,1.83307 -5.06811,2.76142l0.0129921 0.00708662c-20.3138,11.1827 -40.1162,23.3681 -59.3504,36.5103 -10.9559,-8.97638 -20.8949,-19.1469 -29.6103,-30.3142 -25.291,-32.4012 -40.3607,-73.0465 -40.3607,-117.076 0,-52.6087 21.3272,-100.243 55.8071,-134.725 34.4776,-34.4788 82.1103,-55.8083 134.719,-55.8083z"/>
  <polygon class="fil2" points="736.319,575.982 736.315,415.982 800.066,415.982 800.07,575.982 "/>
  <polygon class="fil2" points="512,863.984 352.001,863.984 352.001,799.983 512,799.983 "/>
  <polygon class="fil2" points="567.628,676.857 457.375,566.604 502.626,521.353 612.878,631.607 "/>
  <polygon class="fil2" points="923.122,631.607 1033.37,521.353 1078.62,566.604 968.372,676.857 "/>
  <polygon class="fil2" points="1184,863.984 1024,863.984 1024,799.983 1184,799.983 "/>
  <polygon class="fil2" points="443.129,1079.61 553.374,969.357 598.624,1014.61 488.379,1124.86 "/>
  <path class="fil2" d="M352.001 1632.02c0,-203.326 77.5442,-387.577 202.912,-521.094 125.828,-134.004 299.756,-216.89 491.951,-216.89 95.6186,0 187.82,21.9697 271.927,60.6166 88.369,40.604 167.575,99.5505 232.186,170.674l-1.45748 1.3252c-21.9756,3.70985 -43.2485,10.976 -62.9611,21.6354 -55.5981,-56.5855 -121.387,-103.563 -193.733,-136.804 -75.9461,-34.8981 -159.336,-54.7347 -245.961,-54.7347 -174.242,0 -332.072,75.3012 -446.387,197.046 -114.773,122.232 -185.764,291.3 -185.764,478.225l-62.7119 0z"/>
  <path class="fil2" d="M479.552 1632.02c0,-167.466 63.8977,-319.245 167.196,-429.259 103.759,-110.503 247.2,-178.852 405.721,-178.852 78.0804,0 152.561,16.6193 220.484,46.7185 62.0434,27.4937 118.564,66.2516 167.306,113.868 -4.34882,4.45158 -8.48859,9.10631 -12.4087,13.9536 -5.713,-0.511418 -11.4473,-0.784253 -17.1815,-0.784253 -14.7827,0 -29.465,1.60512 -43.7929,4.74449 -36.117,-30.2445 -76.1516,-55.4044 -119.154,-74.4603 -60.0863,-26.6268 -126.038,-41.328 -195.252,-41.328 -140.568,0 -267.91,60.7654 -360.157,159.01 -92.7036,98.7296 -150.047,235.328 -150.047,386.39l-62.7119 0z"/>
  <path class="fil2" d="M608 1632.02c0,-133.369 50.915,-254.283 133.233,-341.949 82.7694,-88.1516 197.216,-142.675 323.711,-142.675 63.2847,0 123.646,13.7067 178.606,38.4874 24.7134,11.1437 48.3083,24.5292 70.5603,39.9142 -1.7752,0.951969 -3.53859,1.92992 -5.2878,2.93622 -17.3634,9.9945 -33.0839,22.5402 -46.6252,37.1764 -14.178,-8.77087 -28.9099,-16.6264 -44.1272,-23.4874 -46.989,-21.1854 -98.7308,-32.9055 -153.126,-32.9055 -108.711,0 -207.209,47.0115 -278.576,123.019 -71.8217,76.4882 -116.247,182.362 -116.247,299.484l-62.1213 0z"/>
 </g>
</svg>
